<?xml version="1.0" encoding="utf-8"?>
<!-- Generator: Adobe Illustrator 21.0.2, SVG Export Plug-In . SVG Version: 6.00 Build 0)  -->
<!DOCTYPE svg PUBLIC "-//W3C//DTD SVG 1.1//EN" "http://www.w3.org/Graphics/SVG/1.1/DTD/svg11.dtd">
<svg version="1.1" id="Layer_1" xmlns="http://www.w3.org/2000/svg" xmlns:xlink="http://www.w3.org/1999/xlink" x="0px" y="0px"
	 viewBox="0 0 330.2 25.3" enable-background="new 0 0 330.2 25.3" xml:space="preserve">
<path fill="#235783" d="M329.9,17.2c-11.9-0.2-17.9-3.9-24.3-7.9C298.8,5,291,0.2,276.1,0.2S253.5,5,246.6,9.3
	c-6.5,4.1-12.7,7.9-25.3,7.9c-12.6,0-18.7-3.8-25.3-7.9c-6.9-4.3-14.7-9.1-29.5-9.1S143.9,5,137,9.3c-6.5,4.1-12.7,7.9-25.3,7.9
	S93,13.3,86.4,9.3C79.6,5,71.8,0.2,56.9,0.2S34.3,5,27.4,9.3c-6.5,4.1-12.7,7.9-25.3,7.9c-0.7,0-1.5,0-2.2,0v8c0.7,0,1.4,0,2.2,0
	c14.8,0,22.6-4.8,29.5-9.1c6.5-4.1,12.7-7.9,25.3-7.9s18.7,3.8,25.3,7.9c6.9,4.3,14.7,9.1,29.5,9.1s22.6-4.8,29.5-9.1
	c6.5-4.1,12.7-7.9,25.3-7.9c12.6,0,18.7,3.8,25.3,7.9c6.9,4.3,14.7,9.1,29.5,9.1s22.6-4.8,29.5-9.1c6.5-4.1,12.7-7.9,25.3-7.9
	s18.7,3.8,25.3,7.9c6.7,4.2,14.3,8.9,28.5,9.1V17.2z"/>
</svg>
